# xmcd CD database file
#
# Track frame offsets:
#	150
#	13204
#	28150
#	42874
#	55638
#	68987
#	82190
#	96425
#	110150
#	123247
#	136484
#	149933
#	162675
#	175900
#	189542
#	203011
#	216526
#	229069
#	243157
#	256529
#	271539
#	284704
#
# Disc length: 3971 seconds
#
# Revision: 0
# Processed by: cddbd v1.5.2PL0 Copyright (c) Steve Scherf et al.
# Submitted via: CDex 1.70beta2
#
DISCID=570f8116
DTITLE=Various Artist - Jazz Roads CD175 - Swing - Lester Young Vol.3 (1944)
DYEAR=2006
DGENRE=Jazz
TTITLE0=Kansas City Six - Three Little Words
TTITLE1=Kansas City Six - Jo-Jo
TTITLE2=Kansas City Six - I Got Rhythm
TTITLE3=Kansas City Six - Four O'Clock Drag
TTITLE4=Kansas City Six - Empty Hearted
TTITLE5=Kansas City Six - Circus In Rhythm
TTITLE6=Kansas City Six - Circus In Rhythm
TTITLE7=Kansas City Six - Circus In Rhythm
TTITLE8=Kansas City Six - Poor Little Plaything
TTITLE9=Kansas City Six - Poor Little Plaything
TTITLE10=Kansas City Six - Tush
TTITLE11=Kansas City Six - Tush
TTITLE12=Johnny Guarnieri Swing Men - These Foolish Things
TTITLE13=Johnny Guarnieri Swing Men - Exercise In Swing
TTITLE14=Johnny Guarnieri Swing Men - Salute To Fats
TTITLE15=Johnny Guarnieri Swing Men - Basie English
TTITLE16=Johnny Guarnieri Swing Men - Exercise In Swing
TTITLE17=Johnny Guarnieri Swing Men - Exercise In Swing
TTITLE18=Johnny Guarnieri Swing Men - Exercise In Swing
TTITLE19=Johnny Guarnieri Swing Men - Salute To Fats
TTITLE20=Johnny Guarnieri Swing Men - Salute To Fats
TTITLE21=Johnny Guarnieri Swing Men - Basie English
EXTD=YEAR: 2006
EXTT0=
EXTT1=
EXTT2=
EXTT3=
EXTT4=
EXTT5=
EXTT6=
EXTT7=
EXTT8=
EXTT9=
EXTT10=
EXTT11=
EXTT12=
EXTT13=
EXTT14=
EXTT15=
EXTT16=
EXTT17=
EXTT18=
EXTT19=
EXTT20=
EXTT21=
PLAYORDER=
